<?xml version="1.0" encoding="UTF-8"?>
<svg id="Layer_1" xmlns="http://www.w3.org/2000/svg" version="1.1" viewBox="0 0 595.28 841.89">
  <!-- Dark theme variant: white strokes and fills for visibility on dark background -->
  <defs>
    <style>
      .st0 {
        fill: none;
      }

      .st0, .st1, .st2, .st3, .st4, .st5, .st6, .st7 {
        stroke: #fff;
        stroke-miterlimit: 10;
      }

      .st0, .st1, .st4, .st5, .st7 {
        stroke-linecap: round;
      }

      .st1 {
        stroke-width: 3px;
      }

      .st1, .st2, .st8, .st3, .st4, .st5, .st6, .st7 {
        fill: #fff;
      }

      .st2 {
        stroke-linecap: square;
      }

      .st2, .st7 {
        stroke-width: 2px;
      }

      .st9 {
        fill: #fff;
      }

      .st4 {
        stroke-width: .75px;
      }

      .st6 {
        stroke-width: 4px;
      }
    </style>
  </defs>
  <line class="st7" x1="104.68" y1="165.28" x2="151.84" y2="165.28"/>
  <line class="st3" x1="104.68" y1="207.21" x2="151.84" y2="207.21"/>
  <line class="st7" x1="163.48" y1="177.25" x2="93.19" y2="177.25"/>
  <line class="st5" x1="128.26" y1="177.25" x2="128.26" y2="165.28"/>
  <line class="st1" x1="128.26" y1="201.26" x2="128.26" y2="189.29"/>
  <line class="st6" x1="128.26" y1="207.21" x2="128.26" y2="198.67"/>
  <g>
    <line class="st8" x1="128.19" y1="213.16" x2="128.19" y2="207.21"/>
    <g>
      <line class="st0" x1="128.19" y1="212.02" x2="128.19" y2="207.21"/>
      <path class="st9" d="M129.39,211.96c0,.66-.54,1.2-1.2,1.2s-1.2-.54-1.2-1.2.54-1.2,1.2-1.2,1.2.54,1.2,1.2Z"/>
    </g>
  </g>
  <g>
    <line class="st8" x1="104.68" y1="213.16" x2="104.68" y2="207.21"/>
    <g>
      <line class="st0" x1="104.68" y1="212.02" x2="104.68" y2="207.21"/>
      <path class="st9" d="M105.89,211.96c0,.66-.54,1.2-1.2,1.2s-1.2-.54-1.2-1.2.54-1.2,1.2-1.2,1.2.54,1.2,1.2Z"/>
    </g>
  </g>
  <g>
    <line class="st8" x1="109.39" y1="213.16" x2="109.39" y2="207.21"/>
    <g>
      <line class="st0" x1="109.39" y1="212.02" x2="109.39" y2="207.21"/>
      <path class="st9" d="M110.59,211.96c0,.66-.54,1.2-1.2,1.2s-1.2-.54-1.2-1.2.54-1.2,1.2-1.2,1.2.54,1.2,1.2Z"/>
    </g>
  </g>
  <g>
    <line class="st8" x1="118.79" y1="213.16" x2="118.79" y2="207.21"/>
    <g>
      <line class="st0" x1="118.79" y1="212.02" x2="118.79" y2="207.21"/>
      <path class="st9" d="M119.99,211.96c0,.66-.54,1.2-1.2,1.2s-1.2-.54-1.2-1.2.54-1.2,1.2-1.2,1.2.54,1.2,1.2Z"/>
    </g>
  </g>
  <g>
    <line class="st8" x1="114.09" y1="213.16" x2="114.09" y2="207.21"/>
    <g>
      <line class="st0" x1="114.09" y1="212.02" x2="114.09" y2="207.21"/>
      <path class="st9" d="M115.29,211.96c0,.66-.54,1.2-1.2,1.2s-1.2-.54-1.2-1.2.54-1.2,1.2-1.2,1.2.54,1.2,1.2Z"/>
    </g>
  </g>
  <g>
    <line class="st8" x1="123.49" y1="213.16" x2="123.49" y2="207.21"/>
    <g>
      <line class="st0" x1="123.49" y1="212.02" x2="123.49" y2="207.21"/>
      <path class="st9" d="M124.69,211.96c0,.66-.54,1.2-1.2,1.2s-1.2-.54-1.2-1.2.54-1.2,1.2-1.2,1.2.54,1.2,1.2Z"/>
    </g>
  </g>
  <g>
    <line class="st8" x1="132.89" y1="213.16" x2="132.89" y2="207.21"/>
    <g>
      <line class="st0" x1="132.89" y1="212.02" x2="132.89" y2="207.21"/>
      <path class="st9" d="M134.09,211.96c0,.66-.54,1.2-1.2,1.2s-1.2-.54-1.2-1.2.54-1.2,1.2-1.2,1.2.54,1.2,1.2Z"/>
    </g>
  </g>
  <g>
    <line class="st8" x1="146.99" y1="213.16" x2="146.99" y2="207.21"/>
    <g>
      <line class="st0" x1="146.99" y1="212.02" x2="146.99" y2="207.21"/>
      <path class="st9" d="M148.2,211.96c0,.66-.54,1.2-1.2,1.2s-1.2-.54-1.2-1.2.54-1.2,1.2-1.2,1.2.54,1.2,1.2Z"/>
    </g>
  </g>
  <g>
    <line class="st8" x1="137.59" y1="213.16" x2="137.59" y2="207.21"/>
    <g>
      <line class="st0" x1="137.59" y1="212.02" x2="137.59" y2="207.21"/>
      <path class="st9" d="M138.79,211.96c0,.66-.54,1.2-1.2,1.2s-1.2-.54-1.2-1.2.54-1.2,1.2-1.2,1.2.54,1.2,1.2Z"/>
    </g>
  </g>
  <g>
    <line class="st8" x1="142.29" y1="213.16" x2="142.29" y2="207.21"/>
    <g>
      <line class="st0" x1="142.29" y1="212.02" x2="142.29" y2="207.21"/>
      <path class="st9" d="M143.5,211.96c0,.66-.54,1.2-1.2,1.2s-1.2-.54-1.2-1.2.54-1.2,1.2-1.2,1.2.54,1.2,1.2Z"/>
    </g>
  </g>
  <g>
    <line class="st8" x1="151.69" y1="213.16" x2="151.69" y2="207.21"/>
    <g>
      <line class="st0" x1="151.69" y1="212.02" x2="151.69" y2="207.21"/>
      <path class="st9" d="M152.9,211.96c0,.66-.54,1.2-1.2,1.2s-1.2-.54-1.2-1.2.54-1.2,1.2-1.2,1.2.54,1.2,1.2Z"/>
    </g>
  </g>
  <line class="st5" x1="139.91" y1="177.4" x2="128.12" y2="189.37"/>
  <line class="st7" x1="139.91" y1="189.37" x2="128.12" y2="201.34"/>
  <polyline class="st7" points="104.68 189.22 115.44 189.22 151.84 189.22"/>
  <line class="st4" x1="139.91" y1="165.43" x2="128.26" y2="177.25"/>
  <line class="st5" x1="139.91" y1="177.4" x2="139.91" y2="165.43"/>
  <line class="st7" x1="139.91" y1="189.37" x2="139.91" y2="177.4"/>
  <line class="st5" x1="151.69" y1="177.4" x2="151.69" y2="165.43"/>
  <line class="st2" x1="151.69" y1="188.57" x2="151.69" y2="177.39"/>
  <line class="st5" x1="116.62" y1="177.32" x2="128.41" y2="189.29"/>
  <line class="st7" x1="116.62" y1="189.29" x2="128.41" y2="201.26"/>
  <line class="st5" x1="116.62" y1="177.32" x2="116.62" y2="165.35"/>
  <line class="st7" x1="116.62" y1="189.29" x2="116.62" y2="177.32"/>
  <line class="st5" x1="104.83" y1="177.32" x2="104.83" y2="165.35"/>
  <line class="st2" x1="104.83" y1="188.5" x2="104.83" y2="177.32"/>
  <line class="st7" x1="128.26" y1="177.25" x2="128.26" y2="189.29"/>
  <line class="st4" x1="116.55" y1="165.35" x2="128.19" y2="177.18"/>
</svg>
